<?xml version="1.0" encoding="UTF-8" standalone="no"?>
<svg width="185px" height="20px" viewBox="0 0 185 20" version="1.1" xmlns="http://www.w3.org/2000/svg" xmlns:xlink="http://www.w3.org/1999/xlink">
    <!-- Generator: Sketch 3.8.2 (29753) - http://www.bohemiancoding.com/sketch -->
    <title>CONDUCTOR</title>
    <desc>Created with Sketch.</desc>
    <defs></defs>
    <g id="Header" stroke="none" stroke-width="1" fill="none" fill-rule="evenodd">
        <g id="Fixed-Header-Visible" transform="translate(-30.000000, -21.000000)" fill="#FFFFFF">
            <g id="Header">
                <g id="Logo" transform="translate(30.000000, 21.000000)">
                    <g id="CONDUCTOR">
                        <g id="Page-1">
                            <path d="M9.84245399,18.0196226 C11.8218504,18.0196226 13.7467391,17.2045365 15.6171779,15.5743396 L16.5705521,16.6611321 C15.7170509,17.5124571 14.6774294,18.2550912 13.4516564,18.8890566 C12.2258834,19.523022 10.9592703,19.84 9.65177914,19.84 C6.98231793,19.84 4.70786214,18.9117074 2.82834356,17.0550943 C0.948824958,15.1984813 0.0090797546,12.8754857 0.0090797546,10.0860377 C0.0090797546,7.31470313 0.930665631,4.99170747 2.77386503,3.11698113 C4.61706445,1.24225478 6.93691852,0.30490566 9.73349693,0.30490566 C11.6402549,0.30490566 13.2473554,0.753203064 14.5548466,1.64981132 C15.8623378,2.54641958 16.5160736,3.47471218 16.5160736,4.43471698 C16.5160736,4.99622921 16.3526397,5.47169615 16.0257669,5.86113208 C15.6988941,6.250568 15.2539905,6.44528302 14.6910429,6.44528302 C14.1644145,6.44528302 13.74675,6.28226577 13.4380368,5.95622642 C13.1293236,5.63018706 12.9749693,5.24075698 12.9749693,4.78792453 C12.9749693,4.17207238 13.2473592,3.66490765 13.7921472,3.26641509 C12.7025712,2.2701837 11.3497013,1.77207547 9.73349693,1.77207547 C9.04343214,1.77207547 8.33521836,1.93962097 7.60883436,2.27471698 C6.88245036,2.609813 6.19693573,3.09886471 5.55226994,3.74188679 C4.90760415,4.38490887 4.3764438,5.25886242 3.95877301,6.36377358 C3.54110221,7.46868475 3.33226994,8.70942709 3.33226994,10.0860377 C3.33226994,12.4951064 3.97692608,14.4196154 5.26625767,15.8596226 C6.55558925,17.2996298 8.08097278,18.0196226 9.84245399,18.0196226 L9.84245399,18.0196226 L9.84245399,18.0196226 Z M38.8522699,10.0860377 C38.8522699,12.8211457 37.926144,15.1305566 36.073865,17.0143396 C34.2215858,18.8981226 31.8790326,19.84 29.046135,19.84 C26.2132374,19.84 23.8706841,18.8981226 22.0184049,17.0143396 C20.1661257,15.1305566 19.24,12.8211457 19.24,10.0860377 C19.24,7.33281642 20.1661257,5.01434906 22.0184049,3.13056604 C23.8706841,1.24678303 26.2132374,0.30490566 29.046135,0.30490566 C31.8790326,0.30490566 34.2215858,1.24678303 36.073865,3.13056604 C37.926144,5.01434906 38.8522699,7.33281642 38.8522699,10.0860377 L38.8522699,10.0860377 L38.8522699,10.0860377 Z M35.5018405,10.0860377 C35.5018405,7.76753558 34.8844233,5.80227223 33.6495706,4.19018868 C32.4147178,2.57810515 30.8802546,1.77207547 29.046135,1.77207547 C27.1938558,1.77207547 25.6503129,2.57357689 24.4154601,4.17660377 C23.1806073,5.77963064 22.5631902,7.74942226 22.5631902,10.0860377 C22.5631902,12.4045399 23.1806073,14.3607468 24.4154601,15.954717 C25.6503129,17.5486872 27.1938558,18.3456604 29.046135,18.3456604 C30.8802546,18.3456604 32.4147178,17.5486872 33.6495706,15.954717 C34.8844233,14.3607468 35.5018405,12.4045399 35.5018405,10.0860377 L35.5018405,10.0860377 L35.5018405,10.0860377 Z M41.0586503,0.522264151 L45.9344785,0.522264151 L57.238773,14.3516981 L57.0208589,1.98943396 L54.5420859,1.6090566 L54.5420859,0.522264151 L61.270184,0.522264151 L61.270184,1.6090566 L58.791411,1.98943396 L58.791411,19.6226415 L57.5111656,19.6226415 L45.0900613,4.40754717 L45.2807362,18.1554717 L47.7867485,18.5358491 L47.7867485,19.6226415 L41.0586503,19.6226415 L41.0586503,18.5358491 L43.5374233,18.1554717 L43.5374233,1.98943396 L41.0586503,1.6090566 L41.0586503,0.522264151 L41.0586503,0.522264151 Z M63.2041718,0.522264151 L72.4382822,0.522264151 C74.1816038,0.522264151 75.7069874,0.771318264 77.0144785,1.26943396 C78.3219696,1.76754966 79.3661312,2.46037292 80.1469939,3.34792453 C80.9278565,4.23547615 81.5089552,5.24527736 81.8903067,6.37735849 C82.2716583,7.50943962 82.4623313,8.74565366 82.4623313,10.0860377 C82.4623313,12.9117122 81.6270022,15.2075383 79.956319,16.9735849 C78.2856358,18.7396315 75.8976842,19.6226415 72.7923926,19.6226415 L63.2041718,19.6226415 L63.2041718,18.5358491 L65.6829448,18.1554717 L65.6829448,1.98943396 L63.2041718,1.6090566 L63.2041718,0.522264151 L63.2041718,0.522264151 Z M79.1391411,10.0860377 C79.1391411,7.62262921 78.471786,5.66189408 77.1370552,4.20377358 C75.8023245,2.74565309 74.0090911,2.01660377 71.7573006,2.01660377 L68.8426994,2.01660377 L68.8426994,18.1283019 L71.7573006,18.1283019 C74.0090911,18.1283019 75.8023245,17.3992526 77.1370552,15.9411321 C78.471786,14.4830116 79.1391411,12.531333 79.1391411,10.0860377 L79.1391411,10.0860377 L79.1391411,10.0860377 Z M105.561227,1.6090566 L103.082454,1.98943396 L103.082454,11.770566 C103.082454,14.3245411 102.38332,16.3079175 100.985031,17.7207547 C99.5867417,19.133592 97.6527732,19.84 95.1830675,19.84 C92.6952022,19.84 90.752154,19.133592 89.353865,17.7207547 C87.955576,16.3079175 87.2564417,14.3245411 87.2564417,11.770566 L87.2564417,1.98943396 L84.7776687,1.6090566 L84.7776687,0.522264151 L92.8949693,0.522264151 L92.8949693,1.6090566 L90.4161963,1.98943396 L90.4161963,12.3139623 C90.4161963,14.2158586 90.806622,15.6920702 91.5874847,16.7426415 C92.3683473,17.7932128 93.5668632,18.3184906 95.1830675,18.3184906 C96.7811122,18.3184906 97.9705484,17.7932128 98.751411,16.7426415 C99.5322737,15.6920702 99.9226994,14.2158586 99.9226994,12.3139623 L99.9226994,1.98943396 L97.4439264,1.6090566 L97.4439264,0.522264151 L105.561227,0.522264151 L105.561227,1.6090566 L105.561227,1.6090566 Z M117.437546,18.0196226 C119.416942,18.0196226 121.341831,17.2045365 123.21227,15.5743396 L124.165644,16.6611321 C123.312143,17.5124571 122.272521,18.2550912 121.046748,18.8890566 C119.820976,19.523022 118.554362,19.84 117.246871,19.84 C114.57741,19.84 112.302954,18.9117074 110.423436,17.0550943 C108.543917,15.1984813 107.604172,12.8754857 107.604172,10.0860377 C107.604172,7.31470313 108.525758,4.99170747 110.368957,3.11698113 C112.212156,1.24225478 114.532011,0.30490566 117.328589,0.30490566 C119.235347,0.30490566 120.842448,0.753203064 122.149939,1.64981132 C123.45743,2.54641958 124.111166,3.47471218 124.111166,4.43471698 C124.111166,4.99622921 123.947732,5.47169615 123.620859,5.86113208 C123.293986,6.250568 122.849082,6.44528302 122.286135,6.44528302 C121.759507,6.44528302 121.341842,6.28226577 121.033129,5.95622642 C120.724416,5.63018706 120.570061,5.24075698 120.570061,4.78792453 C120.570061,4.17207238 120.842451,3.66490765 121.387239,3.26641509 C120.297663,2.2701837 118.944793,1.77207547 117.328589,1.77207547 C116.638524,1.77207547 115.930311,1.93962097 115.203926,2.27471698 C114.477542,2.609813 113.792028,3.09886471 113.147362,3.74188679 C112.502696,4.38490887 111.971536,5.25886242 111.553865,6.36377358 C111.136194,7.46868475 110.927362,8.70942709 110.927362,10.0860377 C110.927362,12.4951064 111.572018,14.4196154 112.86135,15.8596226 C114.150681,17.2996298 115.676065,18.0196226 117.437546,18.0196226 L117.437546,18.0196226 L117.437546,18.0196226 Z M139.092761,19.6226415 L130.430675,19.6226415 L130.430675,18.5358491 L133.18184,18.1011321 L133.18184,2.01660377 L128.224294,2.12528302 L127.570552,5.1954717 L126.508221,5.1954717 L126.508221,0.522264151 L143.015215,0.522264151 L143.015215,5.1954717 L141.952883,5.1954717 L141.32638,2.12528302 L136.341595,2.01660377 L136.341595,18.1011321 L139.092761,18.5358491 L139.092761,19.6226415 L139.092761,19.6226415 Z M163.717055,10.0860377 C163.717055,12.8211457 162.790929,15.1305566 160.93865,17.0143396 C159.086371,18.8981226 156.743818,19.84 153.91092,19.84 C151.078023,19.84 148.735469,18.8981226 146.88319,17.0143396 C145.030911,15.1305566 144.104785,12.8211457 144.104785,10.0860377 C144.104785,7.33281642 145.030911,5.01434906 146.88319,3.13056604 C148.735469,1.24678303 151.078023,0.30490566 153.91092,0.30490566 C156.743818,0.30490566 159.086371,1.24678303 160.93865,3.13056604 C162.790929,5.01434906 163.717055,7.33281642 163.717055,10.0860377 L163.717055,10.0860377 L163.717055,10.0860377 Z M160.366626,10.0860377 C160.366626,7.76753558 159.749209,5.80227223 158.514356,4.19018868 C157.279503,2.57810515 155.74504,1.77207547 153.91092,1.77207547 C152.058641,1.77207547 150.515098,2.57357689 149.280245,4.17660377 C148.045393,5.77963064 147.427975,7.74942226 147.427975,10.0860377 C147.427975,12.4045399 148.045393,14.3607468 149.280245,15.954717 C150.515098,17.5486872 152.058641,18.3456604 153.91092,18.3456604 C155.74504,18.3456604 157.279503,17.5486872 158.514356,15.954717 C159.749209,14.3607468 160.366626,12.4045399 160.366626,10.0860377 L160.366626,10.0860377 L160.366626,10.0860377 Z M177.009816,11.5260377 L181.940123,18.1283019 L184.745767,18.5358491 L184.745767,19.6226415 L179.243436,19.6226415 L173.332515,11.5803774 L171.561963,11.5803774 L171.561963,18.1554717 L174.040736,18.5358491 L174.040736,19.6226415 L165.923436,19.6226415 L165.923436,18.5358491 L168.402209,18.1554717 L168.402209,1.98943396 L165.923436,1.6090566 L165.923436,0.522264151 L175.893006,0.522264151 C177.890562,0.522264151 179.484043,1.01584412 180.673497,2.00301887 C181.862951,2.99019362 182.457669,4.27169023 182.457669,5.84754717 C182.457669,7.40529079 181.980987,8.6913157 181.027607,9.70566038 C180.074228,10.7200051 178.734978,11.3267915 177.009816,11.5260377 L177.009816,11.5260377 L177.009816,11.5260377 Z M171.561963,10.0588679 L173.959018,10.0588679 C175.538904,10.0588679 176.800977,9.70566392 177.745276,8.99924528 C178.689575,8.29282664 179.161718,7.2875537 179.161718,5.98339623 C179.161718,4.78791857 178.716814,3.82792815 177.826994,3.10339623 C176.937173,2.3788643 175.738658,2.01660377 174.231411,2.01660377 L171.561963,2.01660377 L171.561963,10.0588679 L171.561963,10.0588679 Z" id="CONDUCTOR"></path>
                        </g>
                    </g>
                </g>
            </g>
        </g>
    </g>
</svg>