<?xml version="1.0" encoding="UTF-8" standalone="no"?>
<svg width="165px" height="75px" viewBox="0 0 165 75" version="1.1" xmlns="http://www.w3.org/2000/svg" xmlns:xlink="http://www.w3.org/1999/xlink">
    <!-- Generator: Sketch 40.3 (33839) - http://www.bohemiancoding.com/sketch -->
    <title>map-marker</title>
    <desc>Created with Sketch.</desc>
    <defs></defs>
    <g id="Page-1" stroke="none" stroke-width="1" fill="none" fill-rule="evenodd">
        <g id="map-marker">
            <g id="Homepage">
                <g id="Desktop-HD">
                    <g id="Google-Map-Contact">
                        <g id="Marker-Pointer">
                            <g id="Marker" fill="#000000">
                                <path d="M62.0508221,33.3415882 C54.4383439,41.0623451 54.4383439,53.5801653 62.0508221,61.3009224 L74.7297621,74.1602061 C75.3398547,74.778977 76.3249988,74.7830459 76.9391036,74.1602061 L89.6180437,61.3009224 C97.2305219,53.5801653 97.2305219,41.0623451 89.6180437,33.3415882 C82.0055654,25.6208312 69.6632998,25.6208312 62.0508221,33.3415882 L62.0508221,33.3415882 Z M86.5243902,47.7040816 C86.5243902,41.927634 81.9073265,37.244898 76.2118902,37.244898 C70.5164539,37.244898 65.8993902,41.927634 65.8993902,47.7040816 C65.8993902,53.4805291 70.5164539,58.1632653 76.2118902,58.1632653 C81.9073265,58.1632653 86.5243902,53.4805291 86.5243902,47.7040816 Z" id="Combined-Shape"></path>
                                <rect id="Combined-Shape" x="0" y="0.460579369" width="165" height="32.0838693"></rect>
                            </g>
                            <g id="Conductor-Production" transform="translate(7.474932, 8.673469)" fill="#FFFFFF">
                                <path d="M5.93029696,10.6161496 C6.99231991,10.6161496 8.02509738,10.1750926 9.02866035,9.29296551 L9.54018261,9.88104731 C9.08224611,10.3417137 8.52444885,10.7435656 7.86677408,11.086615 C7.20909932,11.4296644 6.52951226,11.6011866 5.82799251,11.6011866 C4.39572302,11.6011866 3.17538927,11.0988717 2.16695463,10.094227 C1.15851999,9.0895822 0.654310238,7.83256993 0.654310238,6.32315244 C0.654310238,4.82353636 1.14877681,3.5665241 2.13772479,2.55207793 C3.12667277,1.53763176 4.37136448,1.03041628 5.87183727,1.03041628 C6.89488691,1.03041628 7.75715866,1.27299759 8.45867841,1.7581675 C9.16019816,2.24333741 9.51095277,2.74565225 9.51095277,3.2651271 C9.51095277,3.56897088 9.42326412,3.8262541 9.24788418,4.03698446 C9.07250424,4.24771482 8.83379624,4.35307843 8.53175302,4.35307843 C8.24919645,4.35307843 8.02510323,4.26486704 7.85946662,4.08844162 C7.69383001,3.9120162 7.61101295,3.70128899 7.61101295,3.45625369 C7.61101295,3.12300567 7.75716071,2.84857024 8.0494606,2.63293917 C7.46486081,2.0938615 6.73899363,1.8243267 5.87183727,1.8243267 C5.50159074,1.8243267 5.12160658,1.91498841 4.73187338,2.09631453 C4.34214019,2.27764066 3.97433501,2.54227482 3.6284468,2.89022496 C3.28255859,3.23817509 2.99757047,3.71108614 2.77347388,4.30897229 C2.54937729,4.90685844 2.43733068,5.57824511 2.43733068,6.32315244 C2.43733068,7.62674027 2.7832137,8.66812471 3.47499012,9.44733698 C4.16676654,10.2265493 4.98519397,10.6161496 5.93029696,10.6161496 L5.93029696,10.6161496 Z M17.3153209,8.21971623 C17.3153209,9.17045322 17.0108465,9.96925634 16.4018883,10.6161496 C15.7929302,11.2630428 15.0207829,11.5864845 14.0854233,11.5864845 C13.1403203,11.5864845 12.3633014,11.2630428 11.7543432,10.6161496 C11.1453851,9.96925634 10.8409106,9.17045322 10.8409106,8.21971623 C10.8409106,7.27878066 11.1453851,6.47997754 11.7543432,5.82328292 C12.3633014,5.16658829 13.1403203,4.83824591 14.0854233,4.83824591 C15.0207829,4.83824591 15.7929302,5.16658829 16.4018883,5.82328292 C17.0108465,6.47997754 17.3153209,7.27878066 17.3153209,8.21971623 L17.3153209,8.21971623 Z M15.8684437,8.21971623 C15.8684437,7.4748089 15.7003738,6.84752792 15.3642289,6.33785449 C15.028084,5.82818105 14.6018197,5.57334815 14.0854233,5.57334815 C13.5592834,5.57334815 13.1305834,5.82818105 12.7993101,6.33785449 C12.4680369,6.84752792 12.3024028,7.4748089 12.3024028,8.21971623 C12.3024028,8.96462357 12.4680369,9.58945423 12.7993101,10.094227 C13.1305834,10.5989997 13.5592834,10.8513823 14.0854233,10.8513823 C14.6018197,10.8513823 15.028084,10.5989997 15.3642289,10.094227 C15.7003738,9.58945423 15.8684437,8.96462357 15.8684437,8.21971623 L15.8684437,8.21971623 Z M18.0022223,5.08818067 L20.4867589,4.86765 L20.4867589,5.80858087 C21.1298187,5.16168766 21.8313279,4.83824591 22.5913077,4.83824591 C23.2538541,4.83824591 23.8189587,5.04897311 24.2866386,5.47043384 C24.7543184,5.89189457 24.9881548,6.6024863 24.9881548,7.60223035 L24.9881548,10.7190639 L26.0988889,10.8954884 L26.0988889,11.4835702 L22.5182331,11.4835702 L22.5182331,10.8954884 L23.6289671,10.7190639 L23.6289671,7.61693239 C23.6289671,6.9798406 23.4803836,6.53143271 23.183212,6.27169528 C22.8860404,6.01195786 22.5231068,5.88209109 22.0944003,5.88209109 C21.6364638,5.88209109 21.2613513,6.03156039 20.9690514,6.33050346 C20.6767515,6.62944654 20.5306037,7.03374873 20.5306037,7.54342217 L20.5306037,10.7190639 L21.6413378,10.8954884 L21.6413378,11.4835702 L18.0606819,11.4835702 L18.0606819,10.8954884 L19.1568011,10.7190639 L19.1568011,5.77917678 L18.0022223,5.77917678 L18.0022223,5.08818067 Z M34.2394002,11.4835702 L31.857168,11.4835702 L31.857168,10.6308516 C31.2628249,11.2679434 30.5613157,11.5864845 29.7526193,11.5864845 C28.8854629,11.5864845 28.1742105,11.272844 27.6188407,10.6455536 C27.0634709,10.0182633 26.7857902,9.20965887 26.7857902,8.21971623 C26.7857902,7.24937642 27.0853931,6.44322235 27.6846079,5.80122985 C28.2838227,5.15923734 29.0169972,4.83824591 29.8841536,4.83824591 C30.6246466,4.83824591 31.2676968,5.07837691 31.8133232,5.55864611 L31.8133232,1.83902875 L30.6295146,1.83902875 L30.6295146,1.14803264 L33.172511,0.927501964 L33.172511,10.7190639 L34.2394002,10.8954884 L34.2394002,11.4835702 Z M31.8133232,8.21971623 C31.8133232,7.37679478 31.6282027,6.71030874 31.2579562,6.22023813 C30.9169397,5.78897599 30.507726,5.57334815 30.0303028,5.57334815 C29.504163,5.57334815 29.0754629,5.82818105 28.7441897,6.33785449 C28.4129165,6.84752792 28.2472824,7.4748089 28.2472824,8.21971623 C28.2472824,8.96462357 28.4129165,9.58945423 28.7441897,10.094227 C29.0754629,10.5989997 29.504163,10.8513823 30.0303028,10.8513823 C30.4979826,10.8513823 30.8925816,10.6455557 31.2141114,10.2338964 C31.613588,9.72422295 31.8133232,9.05283628 31.8133232,8.21971623 L31.8133232,8.21971623 Z M42.67221,10.8954884 L42.67221,11.4835702 L40.246133,11.4835702 L40.246133,10.6308516 C39.6030733,11.2777448 38.9210504,11.6011866 38.200044,11.6011866 C37.8687708,11.6011866 37.5667321,11.5595312 37.2939189,11.4762192 C37.0211056,11.3929072 36.7580397,11.2532391 36.5047131,11.0572109 C36.2513865,10.8611827 36.0565228,10.5720453 35.9201162,10.1897903 C35.7837096,9.80753517 35.7155073,9.35177634 35.7155073,8.82250007 L35.7301222,5.77917678 L34.5755434,5.77917678 L34.5755434,5.08818067 L37.1039249,4.94116022 L37.1039249,8.77839394 C37.1039249,9.44488997 37.2500726,9.91535071 37.5423725,10.1897903 C37.8346724,10.4642298 38.1902986,10.6014475 38.6092618,10.6014475 C39.0671983,10.6014475 39.4471825,10.4421769 39.7492257,10.123631 C40.0512689,9.80508515 40.2022883,9.37627979 40.2022883,8.83720212 L40.2022883,5.77917678 L39.0330945,5.77917678 L39.0330945,5.08818067 L41.561476,4.94116022 L41.561476,10.7190639 L42.67221,10.8954884 Z M49.2343099,10.3809168 C48.5035601,11.1846326 47.6559032,11.5864845 46.6913135,11.5864845 C45.7462105,11.5864845 44.9667558,11.2654931 44.352926,10.6235006 C43.7390963,9.98150807 43.432186,9.18515527 43.432186,8.23441828 C43.432186,7.28368129 43.7366605,6.47997754 44.3456186,5.82328292 C44.9545767,5.16658829 45.7462104,4.83824591 46.7205433,4.83824591 C47.4512931,4.83824591 48.0529347,4.99751647 48.5254862,5.31606237 C48.9980377,5.63460827 49.2343099,5.99480476 49.2343099,6.39666267 C49.2343099,6.64169797 49.1588002,6.85487549 49.0077786,7.03620162 C48.856757,7.21752775 48.6545859,7.30818945 48.4012593,7.30818945 C48.1576761,7.30818945 47.967684,7.22977933 47.8312774,7.07295673 C47.6948708,6.91613414 47.6266685,6.73481073 47.6266685,6.52898107 C47.6266685,6.33295283 47.7094855,6.15162942 47.8751222,5.98500541 C47.5730789,5.72036728 47.1882232,5.5880502 46.7205433,5.5880502 C46.1749169,5.5880502 45.7340378,5.84533341 45.3978929,6.35990755 C45.0617481,6.8744817 44.8936781,7.50911362 44.8936781,8.26382237 C44.8936781,9.05773676 45.0885418,9.66051458 45.478275,10.0721739 C45.8680082,10.4838332 46.3405526,10.6896598 46.8959224,10.6896598 C47.5487255,10.6896598 48.186904,10.4250256 48.8104771,9.89574935 L49.2343099,10.3809168 Z M54.1595385,10.6308516 L54.3203026,11.2336354 C53.7162162,11.4688693 53.2193138,11.5864845 52.8295806,11.5864845 C52.0696009,11.5864845 51.5532121,11.2385396 51.2803989,10.5426393 C51.1439923,10.1701857 51.07579,9.66051987 51.07579,9.01362666 L51.07579,5.77917678 L49.775062,5.77917678 L49.775062,4.95586227 L51.07579,4.95586227 L51.07579,2.79466167 L52.4642076,2.17717578 L52.4642076,4.94116022 L54.2618429,4.94116022 L54.2618429,5.76447474 L52.4642076,5.76447474 L52.4642076,9.11654097 C52.4642076,10.1946963 52.8149622,10.7337659 53.5164819,10.7337659 C53.6723752,10.7337659 53.8867252,10.6994615 54.1595385,10.6308516 L54.1595385,10.6308516 Z M61.4085396,8.21971623 C61.4085396,9.17045322 61.1040651,9.96925634 60.495107,10.6161496 C59.8861489,11.2630428 59.1140016,11.5864845 58.1786419,11.5864845 C57.2335389,11.5864845 56.45652,11.2630428 55.8475619,10.6161496 C55.2386038,9.96925634 54.9341293,9.17045322 54.9341293,8.21971623 C54.9341293,7.27878066 55.2386038,6.47997754 55.8475619,5.82328292 C56.45652,5.16658829 57.2335389,4.83824591 58.1786419,4.83824591 C59.1140016,4.83824591 59.8861489,5.16658829 60.495107,5.82328292 C61.1040651,6.47997754 61.4085396,7.27878066 61.4085396,8.21971623 L61.4085396,8.21971623 Z M59.9616624,8.21971623 C59.9616624,7.4748089 59.7935925,6.84752792 59.4574476,6.33785449 C59.1213027,5.82818105 58.6950384,5.57334815 58.1786419,5.57334815 C57.6525021,5.57334815 57.223802,5.82818105 56.8925288,6.33785449 C56.5612556,6.84752792 56.3956215,7.4748089 56.3956215,8.21971623 C56.3956215,8.96462357 56.5612556,9.58945423 56.8925288,10.094227 C57.223802,10.5989997 57.6525021,10.8513823 58.1786419,10.8513823 C58.6950384,10.8513823 59.1213027,10.5989997 59.4574476,10.094227 C59.7935925,9.58945423 59.9616624,8.96462357 59.9616624,8.21971623 L59.9616624,8.21971623 Z M66.3629981,5.79387883 C65.8271149,5.75467318 65.4032864,5.91149342 65.0914999,6.26434426 C64.7797133,6.6171951 64.6238224,7.04845078 64.6238224,7.55812421 L64.6238224,10.7190639 L65.8368609,10.8954884 L65.8368609,11.4835702 L62.1539006,11.4835702 L62.1539006,10.8954884 L63.2500198,10.7190639 L63.2500198,5.77917678 L62.0954409,5.77917678 L62.0954409,5.08818067 L64.5799776,4.86765 L64.5799776,5.80858087 C65.2230374,5.16168766 65.9001887,4.83824591 66.6114517,4.83824591 C66.9427249,4.83824591 67.2471994,4.92645729 67.5248843,5.10288272 C67.8025692,5.27930814 67.9414096,5.5439423 67.9414096,5.89679314 C67.9414096,6.15162986 67.8658999,6.36725769 67.7148783,6.54368312 C67.5638567,6.72010854 67.3568141,6.80831992 67.0937441,6.80831992 C66.8501609,6.80831992 66.6626046,6.73236012 66.5310697,6.58043823 C66.3995347,6.42851634 66.3337682,6.24964325 66.3337682,6.04381359 C66.3337682,5.95560088 66.3435114,5.87229012 66.3629981,5.79387883 L66.3629981,5.79387883 Z M75.3511749,1.95664511 L75.3511749,6.36725858 L76.7688223,6.36725858 C77.5677753,6.36725858 78.1864675,6.16633264 78.6249173,5.76447474 C79.0633672,5.36261683 79.2825888,4.82844788 79.2825888,4.16195184 C79.2825888,3.48565439 79.0633672,2.94903512 78.6249173,2.55207793 C78.1864675,2.15512073 77.5677753,1.95664511 76.7688223,1.95664511 L75.3511749,1.95664511 Z M72.3258861,1.14803264 L77.4557236,1.14803264 C78.5372332,1.14803264 79.4068124,1.43226933 80.0644871,2.00075124 C80.7221619,2.56923315 81.0509943,3.29452678 81.0509943,4.17665389 C81.0509943,5.03917817 80.7221619,5.75467053 80.0644871,6.32315244 C79.4068124,6.89163435 78.5372332,7.17587105 77.4557236,7.17587105 L75.3511749,7.17587105 L75.3511749,10.6602557 L76.827282,10.8954884 L76.827282,11.4835702 L72.3258861,11.4835702 L72.3258861,10.8954884 L73.655844,10.6896598 L73.655844,1.94194306 L72.3258861,1.73611443 L72.3258861,1.14803264 Z M86.2246766,5.79387883 C85.6887935,5.75467318 85.264965,5.91149342 84.9531784,6.26434426 C84.6413919,6.6171951 84.4855009,7.04845078 84.4855009,7.55812421 L84.4855009,10.7190639 L85.6985394,10.8954884 L85.6985394,11.4835702 L82.0155792,11.4835702 L82.0155792,10.8954884 L83.1116983,10.7190639 L83.1116983,5.77917678 L81.9571195,5.77917678 L81.9571195,5.08818067 L84.4416562,4.86765 L84.4416562,5.80858087 C85.0847159,5.16168766 85.7618672,4.83824591 86.4731303,4.83824591 C86.8044035,4.83824591 87.108878,4.92645729 87.3865629,5.10288272 C87.6642478,5.27930814 87.8030882,5.5439423 87.8030882,5.89679314 C87.8030882,6.15162986 87.7275785,6.36725769 87.5765569,6.54368312 C87.4255353,6.72010854 87.2184926,6.80831992 86.9554227,6.80831992 C86.7118395,6.80831992 86.5242832,6.73236012 86.3927482,6.58043823 C86.2612133,6.42851634 86.1954468,6.24964325 86.1954468,6.04381359 C86.1954468,5.95560088 86.20519,5.87229012 86.2246766,5.79387883 L86.2246766,5.79387883 Z M94.6282566,8.21971623 C94.6282566,9.17045322 94.3237821,9.96925634 93.714824,10.6161496 C93.1058659,11.2630428 92.3337185,11.5864845 91.3983589,11.5864845 C90.4532559,11.5864845 89.676237,11.2630428 89.0672789,10.6161496 C88.4583208,9.96925634 88.1538463,9.17045322 88.1538463,8.21971623 C88.1538463,7.27878066 88.4583208,6.47997754 89.0672789,5.82328292 C89.676237,5.16658829 90.4532559,4.83824591 91.3983589,4.83824591 C92.3337185,4.83824591 93.1058659,5.16658829 93.714824,5.82328292 C94.3237821,6.47997754 94.6282566,7.27878066 94.6282566,8.21971623 L94.6282566,8.21971623 Z M93.1813793,8.21971623 C93.1813793,7.4748089 93.0133094,6.84752792 92.6771645,6.33785449 C92.3410197,5.82818105 91.9147554,5.57334815 91.3983589,5.57334815 C90.8722191,5.57334815 90.443519,5.82818105 90.1122458,6.33785449 C89.7809726,6.84752792 89.6153384,7.4748089 89.6153384,8.21971623 C89.6153384,8.96462357 89.7809726,9.58945423 90.1122458,10.094227 C90.443519,10.5989997 90.8722191,10.8513823 91.3983589,10.8513823 C91.9147554,10.8513823 92.3410197,10.5989997 92.6771645,10.094227 C93.0133094,9.58945423 93.1813793,8.96462357 93.1813793,8.21971623 L93.1813793,8.21971623 Z M103.061066,11.4835702 L100.678834,11.4835702 L100.678834,10.6308516 C100.084491,11.2679434 99.3829818,11.5864845 98.5742854,11.5864845 C97.7071291,11.5864845 96.9958767,11.272844 96.4405069,10.6455536 C95.8851371,10.0182633 95.6074563,9.20965887 95.6074563,8.21971623 C95.6074563,7.24937642 95.9070592,6.44322235 96.506274,5.80122985 C97.1054888,5.15923734 97.8386634,4.83824591 98.7058197,4.83824591 C99.4463128,4.83824591 100.089363,5.07837691 100.634989,5.55864611 L100.634989,1.83902875 L99.4511807,1.83902875 L99.4511807,1.14803264 L101.994177,0.927501964 L101.994177,10.7190639 L103.061066,10.8954884 L103.061066,11.4835702 Z M100.634989,8.21971623 C100.634989,7.37679478 100.449869,6.71030874 100.079622,6.22023813 C99.7386058,5.78897599 99.3293921,5.57334815 98.8519689,5.57334815 C98.3258291,5.57334815 97.897129,5.82818105 97.5658558,6.33785449 C97.2345826,6.84752792 97.0689485,7.4748089 97.0689485,8.21971623 C97.0689485,8.96462357 97.2345826,9.58945423 97.5658558,10.094227 C97.897129,10.5989997 98.3258291,10.8513823 98.8519689,10.8513823 C99.3196488,10.8513823 99.7142477,10.6455557 100.035778,10.2338964 C100.435254,9.72422295 100.634989,9.05283628 100.634989,8.21971623 L100.634989,8.21971623 Z M111.493876,10.8954884 L111.493876,11.4835702 L109.067799,11.4835702 L109.067799,10.6308516 C108.424739,11.2777448 107.742717,11.6011866 107.02171,11.6011866 C106.690437,11.6011866 106.388398,11.5595312 106.115585,11.4762192 C105.842772,11.3929072 105.579706,11.2532391 105.326379,11.0572109 C105.073053,10.8611827 104.878189,10.5720453 104.741782,10.1897903 C104.605376,9.80753517 104.537173,9.35177634 104.537173,8.82250007 L104.551788,5.77917678 L103.39721,5.77917678 L103.39721,5.08818067 L105.925591,4.94116022 L105.925591,8.77839394 C105.925591,9.44488997 106.071739,9.91535071 106.364039,10.1897903 C106.656339,10.4642298 107.011965,10.6014475 107.430928,10.6014475 C107.888864,10.6014475 108.268849,10.4421769 108.570892,10.123631 C108.872935,9.80508515 109.023954,9.37627979 109.023954,8.83720212 L109.023954,5.77917678 L107.854761,5.77917678 L107.854761,5.08818067 L110.383142,4.94116022 L110.383142,10.7190639 L111.493876,10.8954884 Z M118.055976,10.3809168 C117.325226,11.1846326 116.477569,11.5864845 115.51298,11.5864845 C114.567877,11.5864845 113.788422,11.2654931 113.174592,10.6235006 C112.560762,9.98150807 112.253852,9.18515527 112.253852,8.23441828 C112.253852,7.28368129 112.558327,6.47997754 113.167285,5.82328292 C113.776243,5.16658829 114.567877,4.83824591 115.542209,4.83824591 C116.272959,4.83824591 116.874601,4.99751647 117.347152,5.31606237 C117.819704,5.63460827 118.055976,5.99480476 118.055976,6.39666267 C118.055976,6.64169797 117.980466,6.85487549 117.829445,7.03620162 C117.678423,7.21752775 117.476252,7.30818945 117.222925,7.30818945 C116.979342,7.30818945 116.78935,7.22977933 116.652944,7.07295673 C116.516537,6.91613414 116.448335,6.73481073 116.448335,6.52898107 C116.448335,6.33295283 116.531152,6.15162942 116.696788,5.98500541 C116.394745,5.72036728 116.009889,5.5880502 115.542209,5.5880502 C114.996583,5.5880502 114.555704,5.84533341 114.219559,6.35990755 C113.883414,6.8744817 113.715344,7.50911362 113.715344,8.26382237 C113.715344,9.05773676 113.910208,9.66051458 114.299941,10.0721739 C114.689674,10.4838332 115.162219,10.6896598 115.717589,10.6896598 C116.370392,10.6896598 117.00857,10.4250256 117.632143,9.89574935 L118.055976,10.3809168 Z M122.981205,10.6308516 L123.141969,11.2336354 C122.537882,11.4688693 122.04098,11.5864845 121.651247,11.5864845 C120.891267,11.5864845 120.374878,11.2385396 120.102065,10.5426393 C119.965658,10.1701857 119.897456,9.66051987 119.897456,9.01362666 L119.897456,5.77917678 L118.596728,5.77917678 L118.596728,4.95586227 L119.897456,4.95586227 L119.897456,2.79466167 L121.285874,2.17717578 L121.285874,4.94116022 L123.083509,4.94116022 L123.083509,5.76447474 L121.285874,5.76447474 L121.285874,9.11654097 C121.285874,10.1946963 121.636628,10.7337659 122.338148,10.7337659 C122.494041,10.7337659 122.708391,10.6994615 122.981205,10.6308516 L122.981205,10.6308516 Z M126.284177,2.7064494 C126.284177,2.96128612 126.206231,3.169563 126.050338,3.3312863 C125.894445,3.49300961 125.69471,3.57387005 125.451126,3.57387005 C125.1978,3.57387005 124.995629,3.49300961 124.844607,3.3312863 C124.693586,3.169563 124.618076,2.96128612 124.618076,2.7064494 C124.618076,2.45161268 124.693586,2.24333579 124.844607,2.08161249 C124.995629,1.91988919 125.1978,1.83902875 125.451126,1.83902875 C125.69471,1.83902875 125.894445,1.91988919 126.050338,2.08161249 C126.206231,2.24333579 126.284177,2.45161268 126.284177,2.7064494 L126.284177,2.7064494 Z M123.697336,5.08818067 L126.225717,4.86765 L126.225717,10.7190639 L127.321836,10.8954884 L127.321836,11.4835702 L123.741181,11.4835702 L123.741181,10.8954884 L124.851915,10.7190639 L124.851915,5.77917678 L123.697336,5.77917678 L123.697336,5.08818067 Z M134.585452,8.21971623 C134.585452,9.17045322 134.280978,9.96925634 133.67202,10.6161496 C133.063062,11.2630428 132.290914,11.5864845 131.355555,11.5864845 C130.410452,11.5864845 129.633433,11.2630428 129.024475,10.6161496 C128.415517,9.96925634 128.111042,9.17045322 128.111042,8.21971623 C128.111042,7.27878066 128.415517,6.47997754 129.024475,5.82328292 C129.633433,5.16658829 130.410452,4.83824591 131.355555,4.83824591 C132.290914,4.83824591 133.063062,5.16658829 133.67202,5.82328292 C134.280978,6.47997754 134.585452,7.27878066 134.585452,8.21971623 L134.585452,8.21971623 Z M133.138575,8.21971623 C133.138575,7.4748089 132.970505,6.84752792 132.63436,6.33785449 C132.298215,5.82818105 131.871951,5.57334815 131.355555,5.57334815 C130.829415,5.57334815 130.400715,5.82818105 130.069442,6.33785449 C129.738168,6.84752792 129.572534,7.4748089 129.572534,8.21971623 C129.572534,8.96462357 129.738168,9.58945423 130.069442,10.094227 C130.400715,10.5989997 130.829415,10.8513823 131.355555,10.8513823 C131.871951,10.8513823 132.298215,10.5989997 132.63436,10.094227 C132.970505,9.58945423 133.138575,8.96462357 133.138575,8.21971623 L133.138575,8.21971623 Z M135.272354,5.08818067 L137.75689,4.86765 L137.75689,5.80858087 C138.39995,5.16168766 139.101459,4.83824591 139.861439,4.83824591 C140.523986,4.83824591 141.08909,5.04897311 141.55677,5.47043384 C142.02445,5.89189457 142.258286,6.6024863 142.258286,7.60223035 L142.258286,10.7190639 L143.36902,10.8954884 L143.36902,11.4835702 L139.788365,11.4835702 L139.788365,10.8954884 L140.899099,10.7190639 L140.899099,7.61693239 C140.899099,6.9798406 140.750515,6.53143271 140.453343,6.27169528 C140.156172,6.01195786 139.793238,5.88209109 139.364532,5.88209109 C138.906595,5.88209109 138.531483,6.03156039 138.239183,6.33050346 C137.946883,6.62944654 137.800735,7.03374873 137.800735,7.54342217 L137.800735,10.7190639 L138.911469,10.8954884 L138.911469,11.4835702 L135.330813,11.4835702 L135.330813,10.8954884 L136.426933,10.7190639 L136.426933,5.77917678 L135.272354,5.77917678 L135.272354,5.08818067 Z M145.400494,10.3515127 C145.731768,10.6847608 146.175083,10.8513823 146.730452,10.8513823 C147.120186,10.8513823 147.456325,10.7460187 147.738882,10.5352883 C148.021438,10.3245579 148.162715,10.0721754 148.162715,9.77813299 C148.162715,9.51349486 148.031182,9.29786703 147.768112,9.13124302 C147.505042,8.96461901 147.090957,8.82250066 146.525843,8.70488372 C145.054601,8.3716357 144.31899,7.72475219 144.31899,6.76421379 C144.31899,6.19573188 144.557698,5.73262209 145.035121,5.37487055 C145.512545,5.017119 146.102007,4.83824591 146.803527,4.83824591 C147.48556,4.83824591 148.067715,4.99996678 148.55001,5.32341339 C149.032305,5.64685999 149.273449,5.99970554 149.273449,6.38196062 C149.273449,6.61719452 149.200375,6.81567014 149.054225,6.97739344 C148.908075,7.13911674 148.718083,7.21997718 148.484243,7.21997718 C148.260146,7.21997718 148.082333,7.14646769 147.950798,6.99944651 C147.819263,6.85242532 147.753497,6.68580381 147.753497,6.49957698 C147.753497,6.30354874 147.821699,6.12712596 147.958106,5.97030336 C147.714523,5.70566523 147.319924,5.57334815 146.774297,5.57334815 C146.433281,5.57334815 146.138549,5.66155954 145.890094,5.83798496 C145.641639,6.01441038 145.517414,6.22513758 145.517414,6.47017289 C145.517414,6.91123644 146.024059,7.23957883 147.037366,7.4552099 C147.865549,7.63163532 148.457447,7.88646822 148.813079,8.21971623 C149.16871,8.55296425 149.346523,8.99402119 149.346523,9.54290027 C149.346523,10.1407864 149.093201,10.6308497 148.586547,11.0131048 C148.079894,11.3953598 147.451459,11.5864845 146.701222,11.5864845 C145.970473,11.5864845 145.351781,11.4125121 144.845127,11.0645619 C144.338474,10.7166118 144.085152,10.346614 144.085152,9.95455753 C144.085152,9.70952223 144.158225,9.50614597 144.304375,9.34442267 C144.450525,9.18269937 144.640517,9.10183893 144.874357,9.10183893 C145.088711,9.10183893 145.264088,9.1728981 145.400494,9.31501858 C145.536901,9.45713906 145.605103,9.62621088 145.605103,9.82223913 C145.605103,10.0182674 145.536901,10.1946901 145.400494,10.3515127 L145.400494,10.3515127 Z" id="Conductor-Productions"></path>
                            </g>
                        </g>
                    </g>
                </g>
            </g>
        </g>
    </g>
</svg>