<?xml version="1.0" encoding="UTF-8" standalone="no"?>
<svg width="9px" height="18px" viewBox="0 0 9 18" version="1.1" xmlns="http://www.w3.org/2000/svg" xmlns:xlink="http://www.w3.org/1999/xlink">
    <!-- Generator: Sketch 3.8.2 (29753) - http://www.bohemiancoding.com/sketch -->
    <title>Facebook Icon</title>
    <desc>Created with Sketch.</desc>
    <defs></defs>
    <g id="Homepage" stroke="none" stroke-width="1" fill="none" fill-rule="evenodd">
        <g id="Desktop-HD" transform="translate(-1293.000000, -3940.000000)" fill="#BAE5F7">
            <g id="Footer" transform="translate(-37.500000, 3855.000000)">
                <g id="Social-Media" transform="translate(1331.293811, 85.000000)">
                    <path d="M2.57153653,1.7781485 C3.22184676,1.14393588 4.14683678,0.929726395 5.01940853,0.903027942 C5.94225324,0.894529211 6.86473366,0.899669907 7.78757837,0.900043022 C7.79122134,1.89713074 7.79154516,2.89459157 7.78721407,3.89163783 C7.19081976,3.89055994 6.59402067,3.89313029 5.99762636,3.89055994 C5.61944582,3.86643184 5.23110544,4.1600319 5.16237478,4.54400872 C5.15330784,5.21117984 5.15909611,5.87872408 5.15946041,6.54593666 C6.03417747,6.54962635 6.90889452,6.54481731 7.78357111,6.54817535 C7.71953583,7.513341 7.60263704,8.47411219 7.46549953,9.43115223 C6.69286653,9.43857307 5.91978828,9.430406 5.14719575,9.43525649 C5.14031459,12.2819168 5.15079824,15.1285772 5.14177178,17.9752375 C3.99415595,17.9800466 2.84585201,17.9729989 1.69827666,17.9785541 C1.67654028,15.1315207 1.70005766,12.2830362 1.68633582,9.43562961 C1.12645214,9.42965977 0.566244635,9.43973387 0.00640143145,9.43082057 C0.00854673474,8.47378053 0.00713002502,7.51678195 0.00745384439,6.56007357 C0.566932751,6.5530673 1.12681643,6.56156603 1.68633582,6.55601076 C1.70333633,5.62562772 1.66929482,4.69416679 1.70406493,3.76457144 C1.76016663,3.02837404 2.03411781,2.28666282 2.57153653,1.7781485 L2.57153653,1.7781485 Z" id="Facebook-Icon"></path>
                </g>
            </g>
        </g>
    </g>
</svg>