<?xml version="1.0" encoding="UTF-8" standalone="no"?>
<svg width="17px" height="17px" viewBox="0 0 17 17" version="1.1" xmlns="http://www.w3.org/2000/svg" xmlns:xlink="http://www.w3.org/1999/xlink">
    <!-- Generator: Sketch 3.8.2 (29753) - http://www.bohemiancoding.com/sketch -->
    <title>LinkedIn</title>
    <desc>Created with Sketch.</desc>
    <defs></defs>
    <g id="Homepage" stroke="none" stroke-width="1" fill="none" fill-rule="evenodd">
        <g id="Desktop-HD" transform="translate(-1351.000000, -3941.000000)" fill="#BAE5F7">
            <g id="Footer" transform="translate(-37.500000, 3855.000000)">
                <g id="Social-Media" transform="translate(1331.293811, 85.000000)">
                    <path d="M74.0343782,11.292047 L74.0343782,17.4092294 L70.4857569,17.4092294 L70.4857569,11.701739 C70.4857569,10.2679709 69.9724871,9.28948026 68.6880038,9.28948026 C67.7074637,9.28948026 67.1239436,9.94891127 66.8672317,10.5867998 C66.773616,10.8148424 66.7495192,11.1322479 66.7495192,11.4514615 L66.7495192,17.4092294 L63.1997045,17.4092294 C63.1997045,17.4092294 63.2475132,7.74261408 63.1997045,6.74108064 L66.7491727,6.74108064 L66.7491727,8.25324803 C66.7419745,8.26455783 66.7326206,8.27675242 66.7258458,8.28771601 L66.7491727,8.28771601 L66.7491727,8.25324803 C67.2207543,7.52738152 68.0629494,6.49045685 69.9480438,6.49045685 C72.2835485,6.49041838 74.0343782,8.01520351 74.0343782,11.292047 L74.0343782,11.292047 Z M59.4864473,1.59850361 C58.2720604,1.59850361 57.4777509,2.39453708 57.4777509,3.44134822 C57.4777509,4.46534739 58.2490799,5.28553923 59.4393315,5.28553923 L59.4630434,5.28553923 C60.7009498,5.28553923 61.470816,4.46550127 61.470816,3.44134822 C61.447489,2.39453708 60.7009498,1.59850361 59.4864473,1.59850361 L59.4864473,1.59850361 Z M57.6885788,17.4092294 L61.2370461,17.4092294 L61.2370461,6.74108064 L57.6885788,6.74108064 L57.6885788,17.4092294 L57.6885788,17.4092294 Z" id="LinkedIn"></path>
                </g>
            </g>
        </g>
    </g>
</svg>