<?xml version="1.0" encoding="UTF-8" standalone="no"?>
<svg width="46px" height="44px" viewBox="0 0 46 44" version="1.1" xmlns="http://www.w3.org/2000/svg" xmlns:xlink="http://www.w3.org/1999/xlink">
    <!-- Generator: Sketch 3.8.2 (29753) - http://www.bohemiancoding.com/sketch -->
    <title>Group</title>
    <desc>Created with Sketch.</desc>
    <defs></defs>
    <g id="Page-1" stroke="none" stroke-width="1" fill="none" fill-rule="evenodd" fill-opacity="0.82">
        <g id="Group" fill="#C4F7FC">
            <path d="M33.1042845,26.8266096 L45.2259699,38.1744731 C45.8709287,38.7782591 45.9056073,39.7932593 45.3032252,40.4417564 L43.1179884,42.7942829 C42.5156966,43.4426829 41.504359,43.4786239 40.8596414,42.8750636 L28.737956,31.5272001 C28.0929972,30.9234141 28.0583187,29.9084139 28.6607007,29.2599168 L30.8459375,26.9073903 C31.4482293,26.2589903 32.4595669,26.2230493 33.1042845,26.8266096" id="Rectangle-22"></path>
            <path d="M16.1165346,32.0735726 C25.0174509,32.0735726 32.2330692,24.8936588 32.2330692,16.0367863 C32.2330692,7.1799138 25.0174509,3.55271368e-14 16.1165346,3.55271368e-14 C7.21561831,3.55271368e-14 -8.52651283e-14,7.1799138 -8.52651283e-14,16.0367863 C-8.52651283e-14,24.8936588 7.21561831,32.0735726 16.1165346,32.0735726 Z M16.1165346,26.8772955 C22.1333551,26.8772955 27.0109518,22.0238342 27.0109518,16.0367863 C27.0109518,10.0497384 22.1333551,5.19627713 16.1165346,5.19627713 C10.0997141,5.19627713 5.22211735,10.0497384 5.22211735,16.0367863 C5.22211735,22.0238342 10.0997141,26.8772955 16.1165346,26.8772955 Z" id="Combined-Shape"></path>
        </g>
    </g>
</svg>