<?xml version="1.0" encoding="UTF-8" standalone="no"?>
<svg width="16px" height="16px" viewBox="0 0 16 16" version="1.1" xmlns="http://www.w3.org/2000/svg" xmlns:xlink="http://www.w3.org/1999/xlink">
    <!-- Generator: Sketch 3.8.2 (29753) - http://www.bohemiancoding.com/sketch -->
    <title>Group</title>
    <desc>Created with Sketch.</desc>
    <defs></defs>
    <g id="Page-1" stroke="none" stroke-width="1" fill="none" fill-rule="evenodd">
        <g id="mute-video" transform="translate(-1.000000, 0.000000)" fill="#2CBBF7">
            <g id="Homepage">
                <g id="Desktop-HD">
                    <g id="Hero">
                        <g id="Teaser-Controls">
                            <g id="Video-Controls" transform="translate(0.500000, 0.000000)">
                                <g id="Volume-Control---No-Sound" transform="translate(0.857143, 0.000000)">
                                    <g id="Group">
                                        <g id="Speaker">
                                            <rect id="Rectangle-16" x="0" y="3.84357542" width="2.52994273" height="8.04469274"></rect>
                                            <polygon id="Rectangle-17" points="1.96579458 3.87587291 6.76822155 0.0513268156 6.76822155 15.9203911 1.96579458 11.8744763"></polygon>
                                        </g>
                                        <g id="Muted" transform="translate(7.636356, 2.906189)">
                                            <path d="M-0.563860076,4.72668438 L0.554938308,3.57887284 L8.13502939,3.57887284 L9.31864427,4.77542899 L8.21058066,5.95597797 L0.648652762,5.95597797 L-0.563860076,4.72668438 L-0.563860076,4.72668438 Z" id="Rectangle-18" transform="translate(4.377392, 4.767425) rotate(-45.000000) translate(-4.377392, -4.767425) "></path>
                                            <path d="M-0.566127821,4.76497281 C-0.566127821,4.80127849 0.619955708,3.56141855 0.619955708,3.56141855 L8.20498399,3.56141855 L9.31567426,4.72985296 L8.20498399,5.91267418 L0.551470259,5.91267413 C0.551470259,5.91267413 -0.566127821,4.72866714 -0.566127821,4.76497281 L-0.566127821,4.76497281 Z" id="Rectangle-18-Copy" transform="translate(4.374773, 4.737046) rotate(45.000000) translate(-4.374773, -4.737046) "></path>
                                        </g>
                                    </g>
                                </g>
                            </g>
                        </g>
                    </g>
                </g>
            </g>
        </g>
    </g>
</svg>