<?xml version="1.0" encoding="utf-8"?>
<!-- Generator: Adobe Illustrator 19.1.0, SVG Export Plug-In . SVG Version: 6.00 Build 0)  -->
<svg version="1.1" id="Layer_1" xmlns="http://www.w3.org/2000/svg" xmlns:xlink="http://www.w3.org/1999/xlink" x="0px" y="0px"
	 viewBox="-284.1 381.1 34.1 33.9" style="enable-background:new -284.1 381.1 34.1 33.9;" xml:space="preserve">
<style type="text/css">
	.st0{fill:#0E2731;}
</style>
<title>Post Production Icon</title>
<desc>Created with Sketch.</desc>
<g id="What-We-Do">
	<g id="Desktop-HD" transform="translate(-772.000000, -1263.000000)">
		<g id="Post-Production" transform="translate(660.000000, 0.000000)">
			
				<g id="Post-Production-Icon" transform="translate(21.500000, 38.000000) scale(-1, 1) translate(-21.500000, -38.000000) translate(4.000000, 21.000000)">
				<path class="st0" d="M183.3,1656.9H205c3.3,0,6.1-2.7,6.1-6.1v-16.5h-4v16.5c0,1.2-0.9,2.1-2.1,2.1h-21.8
					c-1.1,0-2.1-0.9-2.1-2.1v-21.6c0-1.2,0.9-2.1,2.1-2.1h17.4v-4h-17.4c-3.3,0-6.1,2.7-6.1,6.1v21.6
					C177.2,1654.2,179.9,1656.9,183.3,1656.9z"/>
				<polygon id="Shape_1_" class="st0" points="206.4,1624.7 210.1,1628.5 192.2,1646.6 187.3,1647.7 188.5,1642.9 				"/>
			</g>
		</g>
	</g>
</g>
</svg>
