<?xml version="1.0" encoding="UTF-8" standalone="no"?>
<svg width="281px" height="195px" viewBox="0 0 281 195" version="1.1" xmlns="http://www.w3.org/2000/svg" xmlns:xlink="http://www.w3.org/1999/xlink">
    <!-- Generator: Sketch 40.3 (33839) - http://www.bohemiancoding.com/sketch -->
    <title>Production Icon</title>
    <desc>Created with Sketch.</desc>
    <defs></defs>
    <g id="What-We-Do" stroke="none" stroke-width="1" fill="none" fill-rule="evenodd">
        <g id="Desktop-HD" transform="translate(-19.000000, -1505.000000)" fill="#FFFFFF">
            <g id="Capabilities" transform="translate(0.000000, 1027.000000)">
                <g id="Services" transform="translate(19.000000, 215.000000)">
                    <g id="Row" transform="translate(0.000000, 263.000000)">
                        <g id="Production">
                            <g id="Production-Icon">
                                <path d="M272.921168,1.49087559 C271.299043,0.897040341 269.851341,0.530259747 268.525734,0.442931034 C265.281485,0.442931034 262.525618,1.59567004 260.205805,3.93607955 L187.053227,75.3185694 L187.053227,38.9374277 C187.053227,34.1692799 186.12879,29.6805841 184.262475,25.4538744 C182.39616,21.1747675 179.884483,17.541893 176.744888,14.4329908 C173.622734,11.3764859 169.94243,8.89635044 165.703976,7.01005024 C161.44808,5.15868153 156.965435,4.19806569 152.221157,4.19806569 L35.9165804,4.19806569 C31.1723025,4.19806569 26.6722154,5.15868153 22.4512035,7.01005024 C18.1953072,8.89635044 14.4975612,11.3764859 11.3230812,14.4329908 C8.1486011,17.5244273 5.61948239,21.1747675 3.75316719,25.4538744 C1.886852,29.7155156 0.962415502,34.1867457 0.962415502,38.9548934 L0.962415502,155.398999 C0.962415502,160.254476 1.886852,164.778103 3.75316719,168.987347 C5.61948239,173.161659 8.1486011,176.881862 11.3230812,180.130491 C14.4975612,183.344187 18.2127494,185.911651 22.4512035,187.76302 C26.6896576,189.64932 31.1723025,190.575005 35.9165804,190.575005 L152.221157,190.575005 C157.070088,190.575005 161.587617,189.64932 165.773745,187.76302 C169.959873,185.911651 173.622734,183.344187 176.744888,180.130491 C179.884483,176.881862 182.378718,173.144194 184.262475,168.900018 C186.12879,164.655843 187.053227,160.149681 187.053227,155.416465 L187.053227,119.471967 L260.205805,190.889388 C262.420964,193.125003 265.194274,194.225345 268.525734,194.225345 C269.833899,194.225345 271.299043,193.910961 272.921168,193.29966 C277.665446,191.2911 280.037584,187.797952 280.037584,182.837681 L280.037584,11.9353896 C280.037584,6.9925845 277.665446,3.49943598 272.921168,1.49087559 L272.921168,1.49087559 Z" id="Shape"></path>
                            </g>
                        </g>
                    </g>
                </g>
            </g>
        </g>
    </g>
</svg>