<?xml version="1.0" encoding="UTF-8" standalone="no"?>
<svg width="40px" height="29px" viewBox="0 0 40 29" version="1.1" xmlns="http://www.w3.org/2000/svg" xmlns:xlink="http://www.w3.org/1999/xlink">
    <!-- Generator: Sketch 3.8.2 (29753) - http://www.bohemiancoding.com/sketch -->
    <title>Production Icon</title>
    <desc>Created with Sketch.</desc>
    <defs></defs>
    <g id="What-We-Do" stroke="none" stroke-width="1" fill="none" fill-rule="evenodd">
        <g id="Desktop-HD" transform="translate(-110.000000, -1587.000000)" fill="#0E2731">
            <g id="Capabilities" transform="translate(0.000000, 1027.000000)">
                <g id="Services" transform="translate(107.000000, 215.000000)">
                    <g id="Row" transform="translate(0.000000, 316.000000)">
                        <g id="Production" transform="translate(0.000000, 1.000000)">
                            <g id="Production-Icon" transform="translate(3.000000, 28.000000)">
                                <path d="M38.8499883,0.92272251 C38.6190809,0.838304754 38.4130023,0.786164376 38.2243037,0.77375 C37.762489,0.77375 37.3701947,0.937619761 37.0399723,1.27032503 L26.6267938,11.4178358 L26.6267938,6.24600687 C26.6267938,5.56818195 26.4952014,4.93008303 26.2295338,4.32922724 C25.9638662,3.72092283 25.6063321,3.20448479 25.1594146,2.76253301 C24.7149799,2.32802986 24.1910933,1.97546158 23.5877546,1.70731106 C22.9819331,1.4441263 22.3438342,1.30756816 21.6684921,1.30756816 L5.11268049,1.30756816 C4.43733844,1.30756816 3.79675665,1.4441263 3.19590086,1.70731106 C2.59007932,1.97546158 2.06370978,2.32802986 1.6118265,2.76253301 C1.15994322,3.20200192 0.799926318,3.72092283 0.534258675,4.32922724 C0.268591032,4.93504878 0.136998648,5.57066483 0.136998648,6.24848975 L0.136998648,22.8018185 C0.136998648,23.4920578 0.268591032,24.1351225 0.534258675,24.7334954 C0.799926318,25.3269025 1.15994322,25.855755 1.6118265,26.3175697 C2.06370978,26.7744188 2.59256219,27.1394014 3.19590086,27.4025862 C3.79923952,27.6707367 4.43733844,27.8023291 5.11268049,27.8023291 L21.6684921,27.8023291 C22.3587314,27.8023291 23.0017961,27.6707367 23.5976861,27.4025862 C24.1935762,27.1394014 24.7149799,26.7744188 25.1594146,26.3175697 C25.6063321,25.855755 25.9613833,25.3244197 26.2295338,24.721081 C26.4952014,24.1177423 26.6267938,23.4771605 26.6267938,22.8043014 L26.6267938,17.6945443 L37.0399723,27.8470208 C37.3552974,28.1648289 37.7500746,28.32125 38.2243037,28.32125 C38.4105194,28.32125 38.6190809,28.2765582 38.8499883,28.1896576 C39.5253303,27.904127 39.8630014,27.4075519 39.8630014,26.7024154 L39.8630014,2.40748186 C39.8630014,1.70482819 39.5253303,1.20825315 38.8499883,0.92272251 L38.8499883,0.92272251 Z" id="Shape"></path>
                            </g>
                        </g>
                    </g>
                </g>
            </g>
        </g>
    </g>
</svg>