<?xml version="1.0" encoding="UTF-8" standalone="no"?>
<svg width="17px" height="16px" viewBox="0 0 17 16" version="1.1" xmlns="http://www.w3.org/2000/svg" xmlns:xlink="http://www.w3.org/1999/xlink">
    <!-- Generator: Sketch 3.8.2 (29753) - http://www.bohemiancoding.com/sketch -->
    <title>Group</title>
    <desc>Created with Sketch.</desc>
    <defs></defs>
    <g id="Page-1" stroke="none" stroke-width="1" fill="none" fill-rule="evenodd">
        <g id="restart-video" transform="translate(-1.000000, 0.000000)" fill="#2CBBF7">
            <g id="Homepage">
                <g id="Desktop-HD">
                    <g id="Hero">
                        <g id="Teaser-Controls">
                            <g id="Video-Controls" transform="translate(0.500000, 0.000000)">
                                <g id="Restart-Video-Icon" transform="translate(0.500000, 0.000000)">
                                    <g id="Group">
                                        <path d="M13.2276596,13.5716314 C12.9217265,13.8714025 12.591624,14.1460536 12.2405976,14.3922997 C10.9805738,15.2762101 9.45094801,15.7941289 7.80181478,15.7941289 C3.49299146,15.7941289 0,12.2584927 0,7.89706446 C0,3.53563619 3.49299146,0 7.80181478,0 C10.5545899,0 12.97438,1.44308421 14.3630966,3.62264151 L12.0902017,3.62264151 C10.9985811,2.50065778 9.48045285,1.80504331 7.80181478,1.80504331 C4.47786536,1.80504331 1.78327195,4.53253408 1.78327195,7.89706446 C1.78327195,11.2615948 4.47786536,13.9890856 7.80181478,13.9890856 C9.51577036,13.9890856 11.062391,13.2638926 12.1585339,12.1001062 L13.2276596,13.5716314 L13.2276596,13.5716314 Z" id="Combined-Shape"></path>
                                        <polygon id="Rectangle-13" transform="translate(12.629752, 5.814573) rotate(270.000000) translate(-12.629752, -5.814573) " points="15.0261978 2.31457332 16.1297521 9.31457332 9.12975203 7.13861802"></polygon>
                                    </g>
                                </g>
                            </g>
                        </g>
                    </g>
                </g>
            </g>
        </g>
    </g>
</svg>