<?xml version="1.0" encoding="utf-8"?>
<!-- Generator: Adobe Illustrator 19.1.0, SVG Export Plug-In . SVG Version: 6.00 Build 0)  -->
<svg version="1.1" id="Layer_1" xmlns="http://www.w3.org/2000/svg" xmlns:xlink="http://www.w3.org/1999/xlink" x="0px" y="0px"
	 viewBox="-297 387 17 19" style="enable-background:new -297 387 17 19;" xml:space="preserve">
<style type="text/css">
	.st0{fill:#2CBBF7;}
</style>
<title>Group</title>
<desc>Created with Sketch.</desc>
<g id="Page-1">
	<g id="sound-video">
		<g id="Volume-Control---Sound">
			<g id="Group">
				<g id="Speaker">
					<rect id="Rectangle-16" x="-297" y="391.6" class="st0" width="3.1" height="9.6"/>
					<polygon id="Rectangle-17" class="st0" points="-294.6,391.6 -288.6,387.1 -288.6,405.9 -294.6,401.1 					"/>
				</g>
				<g id="Volume" transform="translate(10.446429, 3.205357)">
					<path class="st0" d="M-296.7,399.3l-0.6-0.8c0.1-0.1,2.1-1.5,2.1-5.6c0-4.1-2-5.4-2.1-5.4l0.5-0.9c0.1,0.1,2.6,1.6,2.6,6.3
						C-294.2,397.5-296.6,399.2-296.7,399.3z"/>
				</g>
				<path class="st0" d="M-282.6,396.1c0,1.4-0.3,2.4-0.6,3.1h0.9c0.3-0.8,0.6-1.8,0.6-3.1c0-1.3-0.2-2.2-0.5-3h-0.9
					C-282.8,393.8-282.6,394.7-282.6,396.1z"/>
			</g>
		</g>
	</g>
</g>
</svg>
