<?xml version="1.0" encoding="UTF-8" standalone="no"?>
<svg width="36px" height="44px" viewBox="0 0 36 44" version="1.1" xmlns="http://www.w3.org/2000/svg" xmlns:xlink="http://www.w3.org/1999/xlink">
    <!-- Generator: Sketch 3.8.2 (29753) - http://www.bohemiancoding.com/sketch -->
    <title>StoryBoard Icon</title>
    <desc>Created with Sketch.</desc>
    <defs></defs>
    <g id="What-We-Do" stroke="none" stroke-width="1" fill="none" fill-rule="evenodd">
        <g id="Desktop-HD" transform="translate(-771.000000, -1571.000000)">
            <g id="Capabilities" transform="translate(0.000000, 1027.000000)">
                <g id="Services" transform="translate(107.000000, 215.000000)">
                    <g id="Row" transform="translate(0.000000, 316.000000)">
                        <g id="Aerials-&amp;-Storyboard" transform="translate(661.000000, 0.000000)">
                            <g id="StoryBoard-Icon" transform="translate(3.000000, 13.000000)">
                                <path d="M35.085,11.116 L24.458,0.843 C23.898,0.302 23.151,0 22.373,0 L3,0 C1.343,0 0,1.343 0,3 L0,41 C0,42.657 1.343,44 3,44 L33,44 C34.657,44 36,42.657 36,41 L36,13.273 C36,12.459 35.67,11.681 35.085,11.116 L35.085,11.116 Z M24.586,3.748 L32.088,11 L24.586,11 L24.586,3.748 L24.586,3.748 Z M34,41 C34,41.551 33.551,42 33,42 L3,42 C2.449,42 2,41.551 2,41 L2,3 C2,2.449 2.449,2 3,2 L22.373,2 C22.447,2 22.515,2.026 22.586,2.041 L22.586,11 C22.586,12.103 23.483,13 24.586,13 L33.944,13 C33.97,13.089 34,13.178 34,13.273 L34,41 L34,41 Z" id="Shape" fill="#000000"></path>
                                <path d="M25.592,20.06 C25.499,20.026 25.416,20.005 25.34,20 C25.154,20 24.996,20.066 24.863,20.2 L20.669,24.287 L20.669,22.204 C20.669,21.931 20.616,21.674 20.509,21.432 C20.402,21.187 20.258,20.979 20.078,20.801 C19.899,20.626 19.688,20.484 19.445,20.376 C19.201,20.27 18.944,20.215 18.672,20.215 L12.004,20.215 C11.732,20.215 11.474,20.27 11.232,20.376 C10.988,20.484 10.776,20.626 10.594,20.801 C10.412,20.978 10.267,21.187 10.16,21.432 C10.053,21.676 10,21.932 10,22.205 L10,28.872 C10,29.15 10.053,29.409 10.16,29.65 C10.267,29.889 10.412,30.102 10.594,30.288 C10.776,30.472 10.989,30.619 11.232,30.725 C11.475,30.833 11.732,30.886 12.004,30.886 L18.672,30.886 C18.95,30.886 19.209,30.833 19.449,30.725 C19.689,30.619 19.899,30.472 20.078,30.288 C20.258,30.102 20.401,29.888 20.509,29.645 C20.616,29.402 20.669,29.144 20.669,28.873 L20.669,26.815 L24.863,30.904 C24.99,31.032 25.149,31.095 25.34,31.095 C25.415,31.095 25.499,31.077 25.592,31.042 C25.864,30.927 26,30.727 26,30.443 L26,20.658 C26,20.375 25.864,20.175 25.592,20.06 L25.592,20.06 Z" id="Shape" fill="#0E2731"></path>
                            </g>
                        </g>
                    </g>
                </g>
            </g>
        </g>
    </g>
</svg>