<?xml version="1.0" encoding="UTF-8" standalone="no"?>
<svg width="308px" height="377px" viewBox="0 0 308 377" version="1.1" xmlns="http://www.w3.org/2000/svg" xmlns:xlink="http://www.w3.org/1999/xlink">
    <!-- Generator: Sketch 40.3 (33839) - http://www.bohemiancoding.com/sketch -->
    <title>StoryBoard Icon</title>
    <desc>Created with Sketch.</desc>
    <defs></defs>
    <g id="What-We-Do" stroke="none" stroke-width="1" fill="none" fill-rule="evenodd">
        <g id="Desktop-HD" transform="translate(-635.000000, -1404.000000)" fill="#FFFFFF">
            <g id="Capabilities" transform="translate(0.000000, 1027.000000)">
                <g id="Services" transform="translate(107.000000, 215.000000)">
                    <g id="Row" transform="translate(0.000000, 162.000000)">
                        <g id="Aerials-&amp;-Storyboard" transform="translate(528.000000, 0.000000)">
                            <g id="StoryBoard-Icon">
                                <path d="M300.171667,95.2439091 L209.251778,7.22297727 C204.460667,2.58759091 198.069667,0 191.413444,0 L25.6666667,0 C11.4901111,0 0,11.5070682 0,25.7045455 L0,351.295455 C0,365.492932 11.4901111,377 25.6666667,377 L282.333333,377 C296.509889,377 308,365.492932 308,351.295455 L308,113.725477 C308,106.750977 305.176667,100.084932 300.171667,95.2439091 L300.171667,95.2439091 Z M210.346889,32.1135455 L274.530667,94.25 L210.346889,94.25 L210.346889,32.1135455 L210.346889,32.1135455 Z M290.888889,351.295455 C290.888889,356.016523 287.047444,359.863636 282.333333,359.863636 L25.6666667,359.863636 C20.9525556,359.863636 17.1111111,356.016523 17.1111111,351.295455 L17.1111111,25.7045455 C17.1111111,20.9834773 20.9525556,17.1363636 25.6666667,17.1363636 L191.413444,17.1363636 C192.046556,17.1363636 192.628333,17.3591364 193.235778,17.4876591 L193.235778,94.25 C193.235778,103.700705 200.910111,111.386364 210.346889,111.386364 L290.409778,111.386364 C290.632222,112.148932 290.888889,112.9115 290.888889,113.725477 L290.888889,351.295455 L290.888889,351.295455 Z" id="Shape"></path>
                                <path d="M218.953778,171.877727 C218.158111,171.586409 217.448,171.406477 216.797778,171.363636 C215.206444,171.363636 213.854667,171.929136 212.716778,173.077273 L176.834778,208.095432 L176.834778,190.247909 C176.834778,187.908795 176.381333,185.706773 175.465889,183.633273 C174.550444,181.534068 173.318444,179.751886 171.778444,178.22675 C170.247,176.727318 168.441778,175.510636 166.362778,174.585273 C164.275222,173.677045 162.076444,173.205795 159.749333,173.205795 L102.700889,173.205795 C100.373778,173.205795 98.1664444,173.677045 96.096,174.585273 C94.0084444,175.510636 92.1946667,176.727318 90.6375556,178.22675 C89.0804444,179.743318 87.8398889,181.534068 86.9244444,183.633273 C86.009,185.723909 85.5555556,187.917364 85.5555556,190.256477 L85.5555556,247.380545 C85.5555556,249.7625 86.009,251.981659 86.9244444,254.046591 C87.8398889,256.094386 89.0804444,257.919409 90.6375556,259.513091 C92.1946667,261.089636 94.017,262.349159 96.096,263.257386 C98.175,264.18275 100.373778,264.636864 102.700889,264.636864 L159.749333,264.636864 C162.127778,264.636864 164.343667,264.18275 166.397,263.257386 C168.450333,262.349159 170.247,261.089636 171.778444,259.513091 C173.318444,257.919409 174.541889,256.085818 175.465889,254.00375 C176.381333,251.921682 176.834778,249.711091 176.834778,247.389114 L176.834778,229.755795 L212.716778,264.791091 C213.803333,265.887818 215.163667,266.427614 216.797778,266.427614 C217.439444,266.427614 218.158111,266.273386 218.953778,265.9735 C221.280889,264.988159 222.444444,263.274523 222.444444,260.841159 L222.444444,177.0015 C222.444444,174.576705 221.280889,172.863068 218.953778,171.877727 L218.953778,171.877727 Z" id="Shape"></path>
                            </g>
                        </g>
                    </g>
                </g>
            </g>
        </g>
    </g>
</svg>