<?xml version="1.0" encoding="UTF-8" standalone="no"?>
<svg width="21px" height="19px" viewBox="0 0 21 19" version="1.1" xmlns="http://www.w3.org/2000/svg" xmlns:xlink="http://www.w3.org/1999/xlink">
    <!-- Generator: Sketch 3.8.2 (29753) - http://www.bohemiancoding.com/sketch -->
    <title>Twitter Icon</title>
    <desc>Created with Sketch.</desc>
    <defs></defs>
    <g id="Homepage" stroke="none" stroke-width="1" fill="none" fill-rule="evenodd">
        <g id="Desktop-HD" transform="translate(-1316.000000, -3940.000000)" fill="#BAE5F7">
            <g id="Footer" transform="translate(-37.500000, 3855.000000)">
                <g id="Social-Media" transform="translate(1331.293811, 85.000000)">
                    <path d="M27.0897029,4.9134422 C30.1706096,6.52043902 32.7741647,6.42639086 32.7741647,6.42639086 C32.7741647,6.42639086 31.7876381,2.87505056 34.8387104,1.29872161 C37.8897826,-0.275562802 39.9881407,2.38027545 39.9881407,2.38027545 C39.9881407,2.38027545 40.5211833,2.22898059 40.9169873,2.07768572 C41.3127913,1.92639086 41.8876022,1.65651353 41.8876022,1.65651353 L40.9468218,3.39027091 L42.3947883,3.23079794 C42.3947883,3.23079794 42.2157814,3.50067527 41.6369926,4.04860803 C41.0582038,4.59654079 40.819528,4.88072979 40.819528,4.88072979 C40.819528,4.88072979 41.0263804,9.15583202 38.8444858,12.4475176 C36.6625912,15.7392032 33.8462168,17.7142146 29.7529269,18.1312977 C25.659637,18.5463363 22.992435,16.8330242 22.992435,16.8330242 C22.992435,16.8330242 24.7825035,16.7267089 25.9241694,16.2769133 C27.0658353,15.8271178 28.7067314,14.6392486 28.7067314,14.6392486 C28.7067314,14.6392486 26.3736755,13.897086 25.5363212,13.0649642 C24.698967,12.2307979 24.4901256,11.7360228 24.4901256,11.7360228 L26.7933471,11.705355 C26.7933471,11.705355 24.3707877,10.3764136 23.6826059,9.32757214 C22.992435,8.28077523 22.9029316,7.26055714 22.9029316,7.26055714 L24.6731104,7.99863075 C24.6731104,7.99863075 23.2012763,5.93161575 22.992435,4.32666346 C22.7835937,2.71966664 23.2609453,1.85483247 23.2609453,1.85483247 C23.2609453,1.85483247 24.0087961,3.30644538 27.0897029,4.9134422 L27.0897029,4.9134422 Z" id="Twitter-Icon"></path>
                </g>
            </g>
        </g>
    </g>
</svg>